<?xml version="1.0" encoding="UTF-8" standalone="no"?>
<!DOCTYPE svg PUBLIC "-//W3C//DTD SVG 1.1//EN" "http://www.w3.org/Graphics/SVG/1.1/DTD/svg11.dtd">
<svg width="100%" height="100%" viewBox="0 0 24 24" version="1.1" xmlns="http://www.w3.org/2000/svg" xmlns:xlink="http://www.w3.org/1999/xlink" xml:space="preserve" xmlns:serif="http://www.serif.com/" style="fill-rule:evenodd;clip-rule:evenodd;stroke-linecap:round;stroke-linejoin:round;">
    <path id="Base-Folder" serif:id="Base Folder" d="M20,20C21.097,20 22,19.097 22,18L22,8C22,6.903 21.097,6 20,6L12,6L10,4L4,4C2.903,4 2,4.903 2,6L2,18C2,19.097 2.903,20 4,20L20,20Z" style="fill:none;fill-rule:nonzero;stroke:rgb(107,114,128);stroke-opacity:0.5;stroke-width:2px;"/>
    <g id="Svelte">
        <g transform="matrix(0.753618,0,0,0.761678,0.209168,-1.61537)">
            <path d="M29.85,12.77C27.825,9.982 23.968,9.18 21,10.93L16,14.05C14.631,14.872 13.677,16.241 13.38,17.81C13.145,19.105 13.357,20.441 13.98,21.6C13.553,22.234 13.26,22.949 13.12,23.7C12.83,25.289 13.211,26.93 14.17,28.23C16.193,31.007 20.036,31.808 23,30.07L28,27C29.362,26.172 30.311,24.805 30.61,23.24C30.851,21.942 30.639,20.6 30.01,19.44C30.44,18.807 30.736,18.092 30.88,17.34C31.162,15.749 30.778,14.111 29.82,12.81" style="fill:rgb(255,62,0);fill-rule:nonzero;"/>
        </g>
        <g transform="matrix(0.753618,0,0,0.761678,0.209168,-1.61537)">
            <path d="M20.51,28.49C18.898,28.902 17.188,28.286 16.21,26.94C15.629,26.162 15.4,25.174 15.58,24.22C15.602,24.062 15.642,23.908 15.7,23.76L15.79,23.48L16.05,23.66C16.654,24.105 17.331,24.444 18.05,24.66L18.24,24.71L18.24,24.89C18.215,25.15 18.286,25.41 18.44,25.62C18.737,26.031 19.259,26.219 19.75,26.09C19.86,26.066 19.965,26.022 20.06,25.96L25.06,22.84C25.307,22.692 25.479,22.444 25.53,22.16C25.587,21.874 25.521,21.576 25.35,21.34C25.052,20.936 24.536,20.753 24.05,20.88C23.94,20.904 23.835,20.948 23.74,21.01L21.81,22.2C21.499,22.39 21.162,22.535 20.81,22.63C19.199,23.065 17.478,22.449 16.51,21.09C15.932,20.307 15.707,19.316 15.89,18.36C16.063,17.419 16.631,16.596 17.45,16.1L22.45,12.99C22.759,12.792 23.096,12.644 23.45,12.55C25.062,12.132 26.775,12.75 27.75,14.1C28.329,14.879 28.561,15.864 28.39,16.82C28.361,16.973 28.321,17.123 28.27,17.27L28.17,17.56L27.92,17.38C27.315,16.936 26.639,16.597 25.92,16.38L25.74,16.33L25.74,16.15C25.763,15.889 25.688,15.629 25.53,15.42C25.237,15.054 24.756,14.889 24.3,15C24.19,15.024 24.085,15.068 23.99,15.13L18.99,18.24C18.743,18.388 18.571,18.636 18.52,18.92C18.463,19.206 18.529,19.504 18.7,19.74C18.998,20.144 19.514,20.327 20,20.2C20.109,20.171 20.213,20.128 20.31,20.07L22.23,18.88C22.539,18.686 22.877,18.541 23.23,18.45C24.836,18.041 26.538,18.657 27.51,20C28.081,20.783 28.309,21.766 28.14,22.72C27.962,23.662 27.391,24.485 26.57,24.98L21.57,28.1C21.261,28.297 20.924,28.445 20.57,28.54" style="fill:white;fill-rule:nonzero;"/>
        </g>
    </g>
</svg>
